<?xml version="1.0" encoding="UTF-8" standalone="no"?> <svg width="512" height="512" viewBox="0 0 512 512" fill="none" xmlns="http://www.w3.org/2000/svg">
<path d="M476 64H432V44C431.992 36.5765 429.039 29.4593 423.79 24.2101C418.541 18.9608 411.424 16.0082 404 16H108C100.576 16.0082 93.4593 18.9608 88.2101 24.2101C82.9608 29.4593 80.0082 36.5765 80 44V64H36C28.5765 64.0082 21.4593 66.9608 16.2101 72.2101C10.9608 77.4593 8.00821 84.5765 8 92V404C8.00821 411.424 10.9608 418.541 16.2101 423.79C21.4593 429.039 28.5765 431.992 36 432H184V456H152C149.878 456 147.843 456.843 146.343 458.343C144.843 459.843 144 461.878 144 464V480H96C93.8783 480 91.8434 480.843 90.3431 482.343C88.8429 483.843 88 485.878 88 488C88 490.122 88.8429 492.157 90.3431 493.657C91.8434 495.157 93.8783 496 96 496H416C418.122 496 420.157 495.157 421.657 493.657C423.157 492.157 424 490.122 424 488C424 485.878 423.157 483.843 421.657 482.343C420.157 480.843 418.122 480 416 480H368V464C368 461.878 367.157 459.843 365.657 458.343C364.157 456.843 362.122 456 360 456H328V432H476C483.424 431.992 490.541 429.039 495.79 423.79C501.039 418.541 503.992 411.424 504 404V92C503.992 84.5765 501.039 77.4593 495.79 72.2101C490.541 66.9608 483.424 64.0082 476 64ZM96 44C96.0026 40.8182 97.2678 37.7675 99.5176 35.5176C101.768 33.2678 104.818 32.0026 108 32H404C407.182 32.0026 410.232 33.2678 412.482 35.5176C414.732 37.7675 415.997 40.8182 416 44V64H96V44ZM96 80H416V308C415.997 311.182 414.732 314.232 412.482 316.482C410.232 318.732 407.182 319.997 404 320H108C104.818 319.997 101.768 318.732 99.5176 316.482C97.2678 314.232 96.0026 311.182 96 308V80ZM352 472V480H160V472H352ZM200 456V432H312V456H200ZM488 404C487.997 407.182 486.732 410.232 484.482 412.482C482.232 414.732 479.182 415.997 476 416H36C32.8182 415.997 29.7675 414.732 27.5176 412.482C25.2678 410.232 24.0026 407.182 24 404V392H488V404ZM488 376H24V92C24.0026 88.8182 25.2678 85.7675 27.5176 83.5176C29.7675 81.2678 32.8182 80.0026 36 80H80V308C80.0082 315.424 82.9608 322.541 88.2101 327.79C93.4593 333.039 100.576 335.992 108 336H404C411.424 335.992 418.541 333.039 423.79 327.79C429.039 322.541 431.992 315.424 432 308V80H476C479.182 80.0026 482.232 81.2678 484.482 83.5176C486.732 85.7675 487.997 88.8182 488 92V376Z" fill="url(#paint0_linear_1_1213)"/>
<path d="M112 56H120C122.122 56 124.157 55.1571 125.657 53.6569C127.157 52.1566 128 50.1217 128 48C128 45.8783 127.157 43.8434 125.657 42.3431C124.157 40.8429 122.122 40 120 40H112C109.878 40 107.843 40.8429 106.343 42.3431C104.843 43.8434 104 45.8783 104 48C104 50.1217 104.843 52.1566 106.343 53.6569C107.843 55.1571 109.878 56 112 56V56Z" fill="url(#paint1_linear_1_1213)"/>
<path d="M144 56H152C154.122 56 156.157 55.1571 157.657 53.6569C159.157 52.1566 160 50.1217 160 48C160 45.8783 159.157 43.8434 157.657 42.3431C156.157 40.8429 154.122 40 152 40H144C141.878 40 139.843 40.8429 138.343 42.3431C136.843 43.8434 136 45.8783 136 48C136 50.1217 136.843 52.1566 138.343 53.6569C139.843 55.1571 141.878 56 144 56Z" fill="url(#paint2_linear_1_1213)"/>
<path d="M176 56H184C186.122 56 188.157 55.1571 189.657 53.6569C191.157 52.1566 192 50.1217 192 48C192 45.8783 191.157 43.8434 189.657 42.3431C188.157 40.8429 186.122 40 184 40H176C173.878 40 171.843 40.8429 170.343 42.3431C168.843 43.8434 168 45.8783 168 48C168 50.1217 168.843 52.1566 170.343 53.6569C171.843 55.1571 173.878 56 176 56Z" fill="url(#paint3_linear_1_1213)"/>
<path d="M112 208H400C402.122 208 404.157 207.157 405.657 205.657C407.157 204.157 408 202.122 408 200V96C408 93.8783 407.157 91.8434 405.657 90.3431C404.157 88.8429 402.122 88 400 88H112C109.878 88 107.843 88.8429 106.343 90.3431C104.843 91.8434 104 93.8783 104 96V200C104 202.122 104.843 204.157 106.343 205.657C107.843 207.157 109.878 208 112 208ZM120 104H392V192H120V104Z" fill="url(#paint4_linear_1_1213)"/>
<path d="M400 216H272C269.878 216 267.843 216.843 266.343 218.343C264.843 219.843 264 221.878 264 224C264 226.122 264.843 228.157 266.343 229.657C267.843 231.157 269.878 232 272 232H400C402.122 232 404.157 231.157 405.657 229.657C407.157 228.157 408 226.122 408 224C408 221.878 407.157 219.843 405.657 218.343C404.157 216.843 402.122 216 400 216Z" fill="url(#paint5_linear_1_1213)"/>
<path d="M400 240H272C269.878 240 267.843 240.843 266.343 242.343C264.843 243.843 264 245.878 264 248C264 250.122 264.843 252.157 266.343 253.657C267.843 255.157 269.878 256 272 256H400C402.122 256 404.157 255.157 405.657 253.657C407.157 252.157 408 250.122 408 248C408 245.878 407.157 243.843 405.657 242.343C404.157 240.843 402.122 240 400 240Z" fill="url(#paint6_linear_1_1213)"/>
<path d="M400 264H272C269.878 264 267.843 264.843 266.343 266.343C264.843 267.843 264 269.878 264 272C264 274.122 264.843 276.157 266.343 277.657C267.843 279.157 269.878 280 272 280H400C402.122 280 404.157 279.157 405.657 277.657C407.157 276.157 408 274.122 408 272C408 269.878 407.157 267.843 405.657 266.343C404.157 264.843 402.122 264 400 264Z" fill="url(#paint7_linear_1_1213)"/>
<path d="M320 288H272C269.878 288 267.843 288.843 266.343 290.343C264.843 291.843 264 293.878 264 296C264 298.122 264.843 300.157 266.343 301.657C267.843 303.157 269.878 304 272 304H320C322.122 304 324.157 303.157 325.657 301.657C327.157 300.157 328 298.122 328 296C328 293.878 327.157 291.843 325.657 290.343C324.157 288.843 322.122 288 320 288Z" fill="url(#paint8_linear_1_1213)"/>
<path d="M352 288H344C341.878 288 339.843 288.843 338.343 290.343C336.843 291.843 336 293.878 336 296C336 298.122 336.843 300.157 338.343 301.657C339.843 303.157 341.878 304 344 304H352C354.122 304 356.157 303.157 357.657 301.657C359.157 300.157 360 298.122 360 296C360 293.878 359.157 291.843 357.657 290.343C356.157 288.843 354.122 288 352 288Z" fill="url(#paint9_linear_1_1213)"/>
<path d="M112 232H240C242.122 232 244.157 231.157 245.657 229.657C247.157 228.157 248 226.122 248 224C248 221.878 247.157 219.843 245.657 218.343C244.157 216.843 242.122 216 240 216H112C109.878 216 107.843 216.843 106.343 218.343C104.843 219.843 104 221.878 104 224C104 226.122 104.843 228.157 106.343 229.657C107.843 231.157 109.878 232 112 232V232Z" fill="url(#paint10_linear_1_1213)"/>
<path d="M112 256H240C242.122 256 244.157 255.157 245.657 253.657C247.157 252.157 248 250.122 248 248C248 245.878 247.157 243.843 245.657 242.343C244.157 240.843 242.122 240 240 240H112C109.878 240 107.843 240.843 106.343 242.343C104.843 243.843 104 245.878 104 248C104 250.122 104.843 252.157 106.343 253.657C107.843 255.157 109.878 256 112 256V256Z" fill="url(#paint11_linear_1_1213)"/>
<path d="M112 280H240C242.122 280 244.157 279.157 245.657 277.657C247.157 276.157 248 274.122 248 272C248 269.878 247.157 267.843 245.657 266.343C244.157 264.843 242.122 264 240 264H112C109.878 264 107.843 264.843 106.343 266.343C104.843 267.843 104 269.878 104 272C104 274.122 104.843 276.157 106.343 277.657C107.843 279.157 109.878 280 112 280V280Z" fill="url(#paint12_linear_1_1213)"/>
<path d="M112 304H160C162.122 304 164.157 303.157 165.657 301.657C167.157 300.157 168 298.122 168 296C168 293.878 167.157 291.843 165.657 290.343C164.157 288.843 162.122 288 160 288H112C109.878 288 107.843 288.843 106.343 290.343C104.843 291.843 104 293.878 104 296C104 298.122 104.843 300.157 106.343 301.657C107.843 303.157 109.878 304 112 304V304Z" fill="url(#paint13_linear_1_1213)"/>
<path d="M192 288H184C181.878 288 179.843 288.843 178.343 290.343C176.843 291.843 176 293.878 176 296C176 298.122 176.843 300.157 178.343 301.657C179.843 303.157 181.878 304 184 304H192C194.122 304 196.157 303.157 197.657 301.657C199.157 300.157 200 298.122 200 296C200 293.878 199.157 291.843 197.657 290.343C196.157 288.843 194.122 288 192 288Z" fill="url(#paint14_linear_1_1213)"/>
<defs>
<linearGradient id="paint0_linear_1_1213" x1="-27.624" y1="531.624" x2="499.124" y2="4.87599" gradientUnits="userSpaceOnUse">
<stop stop-color="#003F8A"/>
<stop offset="0.518" stop-color="#00D7DF"/>
<stop offset="1" stop-color="#006DF0"/>
</linearGradient>
<linearGradient id="paint1_linear_1_1213" x1="-4638.98" y1="5825.98" x2="3140.69" y2="-5843.51" gradientUnits="userSpaceOnUse">
<stop stop-color="#003F8A"/>
<stop offset="0.518" stop-color="#00D7DF"/>
<stop offset="1" stop-color="#006DF0"/>
</linearGradient>
<linearGradient id="paint2_linear_1_1213" x1="-4222.98" y1="6081.98" x2="3556.69" y2="-5587.51" gradientUnits="userSpaceOnUse">
<stop stop-color="#003F8A"/>
<stop offset="0.518" stop-color="#00D7DF"/>
<stop offset="1" stop-color="#006DF0"/>
</linearGradient>
<linearGradient id="paint3_linear_1_1213" x1="-3806.98" y1="6337.98" x2="3972.69" y2="-5331.51" gradientUnits="userSpaceOnUse">
<stop stop-color="#003F8A"/>
<stop offset="0.518" stop-color="#00D7DF"/>
<stop offset="1" stop-color="#006DF0"/>
</linearGradient>
<linearGradient id="paint4_linear_1_1213" x1="-23493.7" y1="57882.9" x2="19681.3" y2="-51493.9" gradientUnits="userSpaceOnUse">
<stop stop-color="#003F8A"/>
<stop offset="0.518" stop-color="#00D7DF"/>
<stop offset="1" stop-color="#006DF0"/>
</linearGradient>
<linearGradient id="paint5_linear_1_1213" x1="318.142" y1="9169.98" x2="2168.18" y2="-7480.39" gradientUnits="userSpaceOnUse">
<stop stop-color="#003F8A"/>
<stop offset="0.518" stop-color="#00D7DF"/>
<stop offset="1" stop-color="#006DF0"/>
</linearGradient>
<linearGradient id="paint6_linear_1_1213" x1="2046.14" y1="9385.98" x2="3896.18" y2="-7264.39" gradientUnits="userSpaceOnUse">
<stop stop-color="#003F8A"/>
<stop offset="0.518" stop-color="#00D7DF"/>
<stop offset="1" stop-color="#006DF0"/>
</linearGradient>
<linearGradient id="paint7_linear_1_1213" x1="3774.14" y1="9601.98" x2="5624.18" y2="-7048.39" gradientUnits="userSpaceOnUse">
<stop stop-color="#003F8A"/>
<stop offset="0.518" stop-color="#00D7DF"/>
<stop offset="1" stop-color="#006DF0"/>
</linearGradient>
<linearGradient id="paint8_linear_1_1213" x1="1312.06" y1="9497.98" x2="5278.17" y2="-6366.43" gradientUnits="userSpaceOnUse">
<stop stop-color="#003F8A"/>
<stop offset="0.518" stop-color="#00D7DF"/>
<stop offset="1" stop-color="#006DF0"/>
</linearGradient>
<linearGradient id="paint9_linear_1_1213" x1="1353.02" y1="9913.98" x2="9132.69" y2="-1755.51" gradientUnits="userSpaceOnUse">
<stop stop-color="#003F8A"/>
<stop offset="0.518" stop-color="#00D7DF"/>
<stop offset="1" stop-color="#006DF0"/>
</linearGradient>
<linearGradient id="paint10_linear_1_1213" x1="-11361.9" y1="7889.98" x2="-9511.82" y2="-8760.39" gradientUnits="userSpaceOnUse">
<stop stop-color="#003F8A"/>
<stop offset="0.518" stop-color="#00D7DF"/>
<stop offset="1" stop-color="#006DF0"/>
</linearGradient>
<linearGradient id="paint11_linear_1_1213" x1="-9633.86" y1="8105.98" x2="-7783.82" y2="-8544.39" gradientUnits="userSpaceOnUse">
<stop stop-color="#003F8A"/>
<stop offset="0.518" stop-color="#00D7DF"/>
<stop offset="1" stop-color="#006DF0"/>
</linearGradient>
<linearGradient id="paint12_linear_1_1213" x1="-7905.86" y1="8321.98" x2="-6055.82" y2="-8328.39" gradientUnits="userSpaceOnUse">
<stop stop-color="#003F8A"/>
<stop offset="0.518" stop-color="#00D7DF"/>
<stop offset="1" stop-color="#006DF0"/>
</linearGradient>
<linearGradient id="paint13_linear_1_1213" x1="-3967.94" y1="8217.98" x2="-1.83428" y2="-7646.43" gradientUnits="userSpaceOnUse">
<stop stop-color="#003F8A"/>
<stop offset="0.518" stop-color="#00D7DF"/>
<stop offset="1" stop-color="#006DF0"/>
</linearGradient>
<linearGradient id="paint14_linear_1_1213" x1="-726.976" y1="8633.98" x2="7052.69" y2="-3035.51" gradientUnits="userSpaceOnUse">
<stop stop-color="#003F8A"/>
<stop offset="0.518" stop-color="#00D7DF"/>
<stop offset="1" stop-color="#006DF0"/>
</linearGradient>
</defs>
</svg>
